<svg width="0" height="0" class="hidden">
    <symbol xmlns="http://www.w3.org/2000/svg" fill="currentColor" viewBox="0 0 24 24" id="bulb">
        <path fill="none" d="M0 0h24v24H0z"/>
        <path d="M12 3c-.46 0-.93.04-1.4.14-2.76.53-4.96 2.76-5.48 5.52-.48 2.61.48 5.01 2.22 6.56.43.38.66.91.66 1.47V19c0 1.1.9 2 2 2h.28a1.98 1.98 0 003.44 0H14c1.1 0 2-.9 2-2v-2.31c0-.55.22-1.09.64-1.46A6.956 6.956 0 0019 10c0-3.87-3.13-7-7-7zm2 16h-4v-1h4v1zm0-2h-4v-1h4v1zm-1.5-5.59V14h-1v-2.59L9.67 9.59l.71-.71L12 10.5l1.62-1.62.71.71-1.83 1.82z"/>
    </symbol>
    <symbol xmlns="http://www.w3.org/2000/svg" fill="currentColor" viewBox="0 0 24 24" id="close">
        <path d="M19 6.41L17.59 5 12 10.59 6.41 5 5 6.41 10.59 12 5 17.59 6.41 19 12 13.41 17.59 19 19 17.59 13.41 12z"/>
        <path d="M0 0h24v24H0z" fill="none"/>
    </symbol>
    <symbol xmlns="http://www.w3.org/2000/svg" fill="currentColor" viewBox="0 0 24 24" id="error">
        <path d="M0 0h24v24H0z" fill="none"/>
        <path d="M12 2C6.48 2 2 6.48 2 12s4.48 10 10 10 10-4.48 10-10S17.52 2 12 2zm1 15h-2v-2h2v2zm0-4h-2V7h2v6z"/>
    </symbol>
    <symbol xmlns="http://www.w3.org/2000/svg" fill="currentColor" viewBox="0 0 24 24" id="menu">
        <path d="M0 0h24v24H0z" fill="none"/>
        <path d="M3 18h18v-2H3v2zm0-5h18v-2H3v2zm0-7v2h18V6H3z"/>
    </symbol>
    <symbol xmlns="http://www.w3.org/2000/svg" fill="currentColor" viewBox="0 0 24 24" id="subject">
        <path d="M14 17H4v2h10v-2zm6-8H4v2h16V9zM4 15h16v-2H4v2zM4 5v2h16V5H4z"/>
        <path d="M0 0h24v24H0z" fill="none"/>
    </symbol>
    <symbol xmlns="http://www.w3.org/2000/svg" fill="currentColor" viewBox="0 0 24 24" id="warning">
        <path d="M0 0h24v24H0z" fill="none"/>
        <path d="M1 21h22L12 2 1 21zm12-3h-2v-2h2v2zm0-4h-2v-4h2v4z"/>
    </symbol>
</svg>
