<svg xmlns="http://www.w3.org/2000/svg" height="227.78999" width="227.78999" viewBox="0 0 227.7894 227.78939">
    <defs>
        <marker id="c" refY="0" refX="0" overflow="visible" orient="auto">
            <path d="M-4 0l-2 2 7-2-7-2z" fill-rule="evenodd" stroke="#000" stroke-width=".4pt"/>
        </marker>
        <marker id="d" refY="0" refX="0" overflow="visible" orient="auto">
            <path d="M4 0l2-2-7 2 7 2z" fill-rule="evenodd" stroke="#000" stroke-width=".4pt"/>
        </marker>
        <marker id="b" refY="0" refX="0" orient="auto" overflow="visible">
            <path d="M4 0l2-2-7 2 7 2z" fill-rule="evenodd" stroke="#000" stroke-width=".4pt"/>
        </marker>
        <marker id="a" refY="0" refX="0" orient="auto" overflow="visible">
            <path d="M-4 0l-2 2 7-2-7-2z" fill-rule="evenodd" stroke="#000" stroke-width=".4pt"/>
        </marker>
    </defs>
    <path fill="#0694a2" d="M0 0h227.7894v227.7894H0z"/>
    <g fill="#fff">
        <path style="text-indent:0;text-decoration-line:none;text-decoration-style:solid;text-decoration-color:#000;text-transform:none;white-space:normal;isolation:auto;mix-blend-mode:normal;solid-color:#000" d="M105.6952 82.0861a5.0005 5.0005 0 00-1.9492 9.5273l30.898 14.996a5.000911 5.000911 0 104.3672-8.998l-30.9-15a5.0005 5.0005 0 00-2.418-.53125zm-9.1602 18.875a5.0005 5.0005 0 00-1.9492 9.5273l30.898 14.994a5.0005 5.0005 0 104.3672-8.9961l-30.9-14.99a5.0005 5.0005 0 00-2.418-.5293zm-9.1582 18.875a5.0005 5.0005 0 00-1.9492 9.5254l30.898 14.996a5.0005 5.0005 0 104.3652-8.9961l-30.9-15a5.0005 5.0005 0 00-2.416-.5293z" fill-rule="evenodd" color="#000"/>
        <path d="M150.0152 10.2641c-42.835.1931-79.827 32.263-85.125 75.91-2.9462 24.271 4.486 47.494 18.791 65.154 4.4869-.21272 8.8564-.99369 13.029-2.2812-3.0191-7.8133-4.2278-16.466-3.1426-25.406 2.6279-21.649 17.898-38.845 37.512-44.896-6.8626-17.761-23.135-31.17-43.457-33.637 23.075 2.801 42.884 14.565 56.484 31.355 2.9296-.13879 5.9068-.04859 8.9141.31641 18.085 2.1953 34.564-10.997 36.76-29.082 2.1953-18.085-10.688-34.526-28.766-36.783-3.6983-.45385-7.3699-.66676-11-.65039zm-5.9082 66.199c-4.4871.21257-8.8542.99372-13.027 2.2813 3.0188 7.8131 4.2238 16.465 3.1387 25.404-2.6278 21.648-17.894 38.847-37.508 44.898 6.8628 17.761 23.133 31.168 43.455 33.635-23.075-2.801-42.885-14.564-56.484-31.354-2.9303.13892-5.9081.0487-8.916-.3164-18.085-2.1953-34.563 10.995-36.758 29.08-2.1953 18.085 10.688 34.526 28.766 36.783 47.338 5.8092 90.376-27.912 96.123-75.258 2.9462-24.271-4.4845-47.494-18.789-65.154z"/>
    </g>
</svg>
