<svg xmlns="http://www.w3.org/2000/svg" height="221.08" width="979.2" viewBox="0 0 918.014 207.263">
    <defs>
        <marker id="c" overflow="visible" orient="auto">
            <path d="M-4 0l-2 2 7-2-7-2 2 2z" fill-rule="evenodd" stroke="#000" stroke-width=".4pt"/>
        </marker>
        <marker id="d" overflow="visible" orient="auto">
            <path d="M4 0l2-2-7 2 7 2-2-2z" fill-rule="evenodd" stroke="#000" stroke-width=".4pt"/>
        </marker>
        <marker id="b" orient="auto" overflow="visible">
            <path d="M4 0l2-2-7 2 7 2-2-2z" fill-rule="evenodd" stroke="#000" stroke-width=".4pt"/>
        </marker>
        <marker id="a" orient="auto" overflow="visible">
            <path d="M-4 0l-2 2 7-2-7-2 2 2z" fill-rule="evenodd" stroke="#000" stroke-width=".4pt"/>
        </marker>
    </defs>
    <g fill="#3ebd93">
        <path d="M667.179 40.93v116.46h39.902v19.248H646.7v-135.7h20.479zM785.829 91.02h19.863v85.605h-19.863v-8.965q-12.217 11.426-26.28 11.426-17.753 0-29.354-12.832-11.514-13.096-11.514-32.695 0-19.248 11.514-32.08t28.828-12.832q14.94 0 26.807 12.305v-9.931zm-46.934 42.539q0 12.305 6.592 20.039 6.767 7.822 17.05 7.822 10.987 0 17.755-7.558 6.767-7.823 6.767-19.863t-6.767-19.863q-6.768-7.647-17.578-7.647-10.195 0-17.051 7.735-6.768 7.822-6.768 19.336zM850.779 28.18v72.773q11.865-12.305 26.895-12.305 17.314 0 28.828 12.92 11.514 12.832 11.514 31.992 0 19.775-11.602 32.695-11.514 12.832-29.092 12.832-14.854 0-26.543-11.426v8.965h-19.775V28.176h19.775zm47.02 106.26q0-12.305-6.679-20.039-6.768-7.91-16.963-7.91-10.898 0-17.754 7.646-6.768 7.559-6.768 19.688 0 12.48 6.68 19.951 6.68 7.647 17.578 7.647 10.283 0 17.051-7.647 6.856-7.734 6.856-19.336z"/>
    </g>
    <path fill="#724bb7" d="M515.809 40.93v135.7h-20.48V40.93h20.48zM544.629 91.02h19.863v7.91q10.37-10.283 23.379-10.283 14.94 0 23.29 9.405 7.208 7.998 7.208 26.104v52.47h-19.863v-47.811q0-12.656-3.516-17.49-3.427-4.922-12.48-4.922-9.844 0-13.975 6.504-4.043 6.416-4.043 22.412v41.309H544.63V91.023z"/>
    <path style="text-decoration-color:#000;isolation:auto;mix-blend-mode:normal;block-progression:tb;text-decoration-line:none;text-decoration-style:solid;text-indent:0;text-transform:none"
          d="M67.929 71.82a5 5 0 0 0-1.95 9.527l30.899 14.996a5 5 0 1 0 4.367-8.998l-30.9-14.99a5 5 0 0 0-2.418-.53zm-9.16 18.875a5 5 0 0 0-1.95 9.527l30.898 14.994a5 5 0 1 0 4.368-8.996L61.187 91.224a5 5 0 0 0-2.418-.529zM49.61 109.57a5 5 0 0 0-1.949 9.525l30.898 14.996a5 5 0 1 0 4.365-8.996l-30.9-15.01a5 5 0 0 0-2.416-.529z" fill-rule="evenodd" fill="#724bb7" color="#000" white-space="normal"/>
    <path d="M112.249.007C69.414.2 32.422 32.27 27.124 75.917c-2.946 24.271 4.486 47.494 18.79 65.154a52.61 52.61 0 0 0 13.03-2.281c-3.02-7.813-4.228-16.466-3.143-25.406C58.43 91.734 73.7 74.539 93.313 68.488c-6.862-17.761-23.135-31.17-43.457-33.637 23.075 2.8 42.884 14.565 56.484 31.355a53.054 53.054 0 0 1 8.914.316c18.085 2.196 34.564-10.997 36.76-29.082C154.21 19.355 141.326 2.914 123.248.657a87.055 87.055 0 0 0-11-.65zm-5.908 66.199a52.588 52.588 0 0 0-13.027 2.281c3.018 7.813 4.223 16.465 3.138 25.404-2.628 21.648-17.894 38.847-37.508 44.898 6.863 17.761 23.133 31.168 43.455 33.635-23.075-2.8-42.884-14.564-56.484-31.354-2.93.14-5.908.049-8.916-.316-18.085-2.195-34.562 10.995-36.758 29.08-2.195 18.085 10.688 34.526 28.766 36.783 47.338 5.809 90.376-27.912 96.123-75.258 2.946-24.271-4.484-47.494-18.789-65.154z"
          fill="#3ebd93"/>
    <g fill="#3ebd93">
        <path d="M172.529 109.48v67.148h-19.775V109.48h-8.438V91.023h8.438V59.646h19.775v31.377h15.38v18.457h-15.38zM198.719 133.21q0-18.545 13.27-31.553t32.345-13.008q19.16 0 32.52 13.096 13.184 13.096 13.184 32.168 0 19.248-13.271 32.256-13.36 12.92-32.783 12.92-19.248 0-32.256-13.184-13.008-13.008-13.008-32.695zm20.215.352q0 12.832 6.855 20.303 7.032 7.558 18.545 7.558 11.602 0 18.545-7.47 6.944-7.471 6.944-19.952t-6.944-19.95q-7.03-7.56-18.545-7.56-11.338 0-18.369 7.56-7.03 7.558-7.03 19.511zM377.659 94.71v26.279q-6.768-8.262-12.13-11.338-5.273-3.164-12.392-3.164-11.162 0-18.545 7.822-7.383 7.823-7.383 19.6 0 12.041 7.12 19.775 7.206 7.735 18.368 7.735 7.12 0 12.568-3.077 5.273-2.988 12.393-11.602v26.104q-12.04 6.24-24.082 6.24-19.863 0-33.223-12.831-13.359-12.92-13.359-32.08t13.535-32.344 33.223-13.184q12.656 0 23.906 6.064zM421.349 28.18v90.527l27.86-27.686h26.544l-37.178 35.947 39.902 49.658h-25.664l-28.301-36.123-3.164 3.164v32.96h-19.775V28.176h19.775z"/>
    </g>
</svg>