<svg xmlns="http://www.w3.org/2000/svg" height="227.79" width="227.79" viewBox="0 0 227.789 227.789"><defs><marker id="c" overflow="visible" orient="auto"><path d="M-4 0l-2 2 7-2-7-2 2 2z" fill-rule="evenodd" stroke="#000" stroke-width=".4pt"/></marker><marker id="d" overflow="visible" orient="auto"><path d="M4 0l2-2-7 2 7 2-2-2z" fill-rule="evenodd" stroke="#000" stroke-width=".4pt"/></marker><marker id="b" orient="auto" overflow="visible"><path d="M4 0l2-2-7 2 7 2-2-2z" fill-rule="evenodd" stroke="#000" stroke-width=".4pt"/></marker><marker id="a" orient="auto" overflow="visible"><path d="M-4 0l-2 2 7-2-7-2 2 2z" fill-rule="evenodd" stroke="#000" stroke-width=".4pt"/></marker></defs><path style="text-decoration-color:#000;isolation:auto;mix-blend-mode:normal;block-progression:tb;text-decoration-line:none;text-decoration-style:solid;text-indent:0;text-transform:none" d="M105.695 82.086a5 5 0 0 0-1.949 9.527l30.898 14.996a5 5 0 1 0 4.367-8.998l-30.9-15a5 5 0 0 0-2.418-.53zm-9.16 18.875a5 5 0 0 0-1.95 9.527l30.899 14.994a5 5 0 1 0 4.367-8.996l-30.9-14.99a5 5 0 0 0-2.418-.529zm-9.158 18.875a5 5 0 0 0-1.95 9.526l30.899 14.996a5 5 0 1 0 4.365-8.997l-30.9-15a5 5 0 0 0-2.416-.529z" fill-rule="evenodd" fill="#724bb7" color="#000" white-space="normal"/><path d="M150.015 10.264c-42.835.193-79.827 32.263-85.125 75.91-2.946 24.271 4.486 47.494 18.791 65.154a52.61 52.61 0 0 0 13.03-2.281c-3.02-7.813-4.229-16.466-3.143-25.406 2.627-21.65 17.898-38.845 37.512-44.896-6.863-17.761-23.135-31.17-43.457-33.637 23.075 2.8 42.884 14.565 56.484 31.355a53.055 53.055 0 0 1 8.914.316c18.085 2.196 34.564-10.997 36.76-29.082 2.195-18.085-10.688-34.526-28.766-36.783a87.055 87.055 0 0 0-11-.65zm-5.908 66.2a52.584 52.584 0 0 0-13.027 2.28c3.019 7.813 4.224 16.465 3.139 25.404-2.628 21.648-17.894 38.847-37.508 44.898 6.863 17.761 23.133 31.168 43.455 33.635-23.075-2.8-42.885-14.564-56.484-31.354-2.93.14-5.908.05-8.916-.316-18.085-2.195-34.563 10.995-36.758 29.08-2.196 18.085 10.688 34.526 28.766 36.783 47.338 5.81 90.376-27.912 96.123-75.258 2.946-24.271-4.485-47.494-18.79-65.154z" fill="#3ebd93"/></svg>